<?xml version="1.0" encoding="UTF-8"?><svg id="a" xmlns="http://www.w3.org/2000/svg" xmlns:xlink="http://www.w3.org/1999/xlink" viewBox="0 0 2077.92 1481.55"><defs><style>.k{fill:#093870;}.l{opacity:.33;}.m{fill:#0d63d9;}.n{clip-path:url(#b);}.o,.p{fill:none;}.q{clip-path:url(#f);}.r{clip-path:url(#j);}.p{stroke:#fff;stroke-miterlimit:10;stroke-width:4px;}.s{fill:#0e54a8;}.t{clip-path:url(#i);}.u{fill:#fcfcfc;}</style><clipPath id="b"><rect class="o" y="200.71" width="1920" height="1080"/></clipPath><clipPath id="f"><rect class="o" y="200.71" width="1920" height="1080"/></clipPath><clipPath id="i"><rect class="o" x="1716" y="1125.15" width="102" height="76.56"/></clipPath><clipPath id="j"><rect class="o" x="101.62" y="279.52" width="102" height="76.56"/></clipPath></defs><g class="n"><g id="c"><rect id="d" class="m" y="200.71" width="1920" height="1080"/><g id="e"><g class="q"><g class="l"><rect class="p" x="383.17" y="636.15" width="178.87" height="178.87" transform="translate(293.73 1572.82) rotate(-135)"/><rect class="p" x="592.34" y="771.01" width="139.96" height="140.82" transform="translate(535.69 1904.72) rotate(-135)"/><rect class="p" x="610.24" y="495.46" width="171.6" height="170.75" transform="translate(777.51 1483.73) rotate(-135)"/></g><g class="l"><rect class="p" x="1325.18" y="1174.18" width="178.87" height="178.87" transform="translate(-479.18 1370.38) rotate(-45)"/><rect class="p" x="1154.91" y="1309.04" width="139.96" height="140.82" transform="translate(-616.65 1270.16) rotate(-45)"/><rect class="p" x="1105.37" y="1033.49" width="171.6" height="170.75" transform="translate(-442.27 1169.99) rotate(-45)"/></g><g class="l"><rect class="p" x="1641.17" y="179.18" width="178.87" height="178.87" transform="translate(2764.4 1682.27) rotate(-135)"/><rect class="p" x="1850.35" y="314.04" width="139.96" height="140.82" transform="translate(3006.36 2014.17) rotate(-135)"/><rect class="p" x="1868.25" y="38.49" width="171.6" height="170.75" transform="translate(3248.18 1593.18) rotate(-135)"/></g></g></g><g id="g"><path class="s" d="M1075.43,397.71h844.57V967.71H904v-398.57c0-94.62,76.82-171.43,171.43-171.43Z"/><path class="k" d="M1131.43,356.71h788.57V926.71H960v-398.57c0-94.62,76.82-171.43,171.43-171.43Z"/></g><g id="h"><g class="t"><g><rect class="u" x="1716" y="1125.15" width="5.96" height="5.96"/><rect class="u" x="1748.01" y="1125.15" width="5.96" height="5.96"/><rect class="u" x="1780.03" y="1125.15" width="5.96" height="5.96"/><rect class="u" x="1812.04" y="1125.15" width="5.96" height="5.96"/><rect class="u" x="1716" y="1157.17" width="5.96" height="5.96"/><rect class="u" x="1748.01" y="1157.17" width="5.96" height="5.96"/><rect class="u" x="1780.03" y="1157.17" width="5.96" height="5.96"/><rect class="u" x="1812.04" y="1157.17" width="5.96" height="5.96"/><rect class="u" x="1716" y="1189.18" width="5.96" height="5.96"/><rect class="u" x="1748.01" y="1189.18" width="5.96" height="5.96"/><rect class="u" x="1780.03" y="1189.18" width="5.96" height="5.96"/><rect class="u" x="1812.04" y="1189.18" width="5.96" height="5.96"/></g></g><g class="r"><g><rect class="u" x="101.63" y="279.52" width="5.96" height="5.96"/><rect class="u" x="133.64" y="279.52" width="5.96" height="5.96"/><rect class="u" x="165.65" y="279.52" width="5.96" height="5.96"/><rect class="u" x="197.67" y="279.52" width="5.96" height="5.96"/><rect class="u" x="101.63" y="311.53" width="5.96" height="5.96"/><rect class="u" x="133.64" y="311.53" width="5.96" height="5.96"/><rect class="u" x="165.65" y="311.53" width="5.96" height="5.96"/><rect class="u" x="197.67" y="311.53" width="5.96" height="5.96"/><rect class="u" x="101.63" y="343.55" width="5.96" height="5.96"/><rect class="u" x="133.64" y="343.55" width="5.96" height="5.96"/><rect class="u" x="165.65" y="343.55" width="5.96" height="5.96"/><rect class="u" x="197.67" y="343.55" width="5.96" height="5.96"/></g></g></g></g><path class="s" d="M0,1130.71H466.37c72.1,0,130.63,58.53,130.63,130.63v19.37H0v-150H0Z"/></g></svg>